<mxfile host="app.diagrams.net" agent="Mozilla/5.0 (Windows NT 10.0; Win64; x64) AppleWebKit/537.36 (KHTML, like Gecko) Chrome/133.0.0.0 Safari/537.36" version="25.0.1">
  <diagram id="C5RBs43oDa-KdzZeNtuy" name="Page-1">
    <mxGraphModel dx="2206" dy="1188" grid="1" gridSize="10" guides="1" tooltips="1" connect="1" arrows="1" fold="1" page="1" pageScale="1" pageWidth="827" pageHeight="1169" math="0" shadow="0">
      <root>
        <mxCell id="WIyWlLk6GJQsqaUBKTNV-0" />
        <mxCell id="WIyWlLk6GJQsqaUBKTNV-1" parent="WIyWlLk6GJQsqaUBKTNV-0" />
        <mxCell id="sObqyzGJp8MzGJ6KXpRl-7" style="edgeStyle=orthogonalEdgeStyle;rounded=0;orthogonalLoop=1;jettySize=auto;html=1;exitX=0.5;exitY=0;exitDx=0;exitDy=0;entryX=0.5;entryY=1;entryDx=0;entryDy=0;" parent="WIyWlLk6GJQsqaUBKTNV-1" source="U00-1Mk1iWWQr820ST_R-0" target="sObqyzGJp8MzGJ6KXpRl-5" edge="1">
          <mxGeometry relative="1" as="geometry" />
        </mxCell>
        <mxCell id="U00-1Mk1iWWQr820ST_R-0" value="&lt;font style=&quot;font-size: 22px;&quot;&gt;MainActivity&lt;/font&gt;&lt;div&gt;&lt;br&gt;&lt;br&gt;&lt;br&gt;&lt;br&gt;&lt;br&gt;&lt;/div&gt;&lt;div&gt;&lt;br&gt;&lt;/div&gt;&lt;div&gt;&lt;br&gt;&lt;/div&gt;&lt;div&gt;&lt;br&gt;&lt;/div&gt;&lt;div&gt;&lt;br&gt;&lt;/div&gt;&lt;div&gt;&lt;br&gt;&lt;/div&gt;&lt;div&gt;&lt;br&gt;&lt;/div&gt;&lt;div&gt;&lt;br&gt;&lt;/div&gt;&lt;div&gt;&lt;br&gt;&lt;/div&gt;&lt;div&gt;&lt;br&gt;&lt;/div&gt;&lt;div&gt;&lt;br&gt;&lt;/div&gt;&lt;div&gt;&lt;br&gt;&lt;/div&gt;&lt;div&gt;&lt;br&gt;&lt;/div&gt;" style="rounded=0;whiteSpace=wrap;html=1;fillColor=#000000;fontColor=#FAFAFA;" parent="WIyWlLk6GJQsqaUBKTNV-1" vertex="1">
          <mxGeometry x="90" y="460" width="190" height="300" as="geometry" />
        </mxCell>
        <mxCell id="sObqyzGJp8MzGJ6KXpRl-0" style="edgeStyle=orthogonalEdgeStyle;rounded=0;orthogonalLoop=1;jettySize=auto;html=1;exitX=1;exitY=0.25;exitDx=0;exitDy=0;entryX=0.25;entryY=1;entryDx=0;entryDy=0;" parent="WIyWlLk6GJQsqaUBKTNV-1" source="sObqyzGJp8MzGJ6KXpRl-1" target="sObqyzGJp8MzGJ6KXpRl-4" edge="1">
          <mxGeometry relative="1" as="geometry">
            <mxPoint x="410" y="610" as="targetPoint" />
          </mxGeometry>
        </mxCell>
        <mxCell id="sObqyzGJp8MzGJ6KXpRl-9" value="&lt;font style=&quot;font-size: 17px;&quot;&gt;FAB añadir&lt;/font&gt;" style="edgeLabel;html=1;align=center;verticalAlign=middle;resizable=0;points=[];" parent="sObqyzGJp8MzGJ6KXpRl-0" vertex="1" connectable="0">
          <mxGeometry x="0.1313" y="1" relative="1" as="geometry">
            <mxPoint x="-4" y="-53" as="offset" />
          </mxGeometry>
        </mxCell>
        <mxCell id="sObqyzGJp8MzGJ6KXpRl-1" value="&lt;font style=&quot;font-size: 16px;&quot;&gt;Contact-&lt;/font&gt;&lt;div&gt;&lt;font style=&quot;font-size: 16px;&quot;&gt;List-&lt;/font&gt;&lt;/div&gt;&lt;div&gt;&lt;font style=&quot;font-size: 16px;&quot;&gt;Fragment&lt;/font&gt;&lt;/div&gt;" style="rounded=0;whiteSpace=wrap;html=1;" parent="WIyWlLk6GJQsqaUBKTNV-1" vertex="1">
          <mxGeometry x="100" y="510" width="170" height="240" as="geometry" />
        </mxCell>
        <mxCell id="sObqyzGJp8MzGJ6KXpRl-4" value="&lt;font style=&quot;font-size: 16px;&quot;&gt;Agregar-&lt;/font&gt;&lt;div&gt;&lt;font style=&quot;font-size: 16px;&quot;&gt;Contacto-&lt;/font&gt;&lt;/div&gt;&lt;div&gt;&lt;font style=&quot;font-size: 16px;&quot;&gt;Dialog&lt;/font&gt;&lt;/div&gt;" style="rounded=0;whiteSpace=wrap;html=1;" parent="WIyWlLk6GJQsqaUBKTNV-1" vertex="1">
          <mxGeometry x="310" y="40" width="170" height="300" as="geometry" />
        </mxCell>
        <mxCell id="sObqyzGJp8MzGJ6KXpRl-5" value="&lt;font style=&quot;font-size: 22px;&quot;&gt;AboutActivity&lt;/font&gt;&lt;div&gt;&lt;br&gt;&lt;br&gt;&lt;br&gt;&lt;br&gt;&lt;br&gt;&lt;/div&gt;&lt;div&gt;&lt;br&gt;&lt;/div&gt;&lt;div&gt;&lt;br&gt;&lt;/div&gt;&lt;div&gt;&lt;br&gt;&lt;/div&gt;&lt;div&gt;&lt;br&gt;&lt;/div&gt;&lt;div&gt;&lt;br&gt;&lt;/div&gt;&lt;div&gt;&lt;br&gt;&lt;/div&gt;&lt;div&gt;&lt;br&gt;&lt;/div&gt;&lt;div&gt;&lt;br&gt;&lt;/div&gt;&lt;div&gt;&lt;br&gt;&lt;/div&gt;&lt;div&gt;&lt;br&gt;&lt;/div&gt;&lt;div&gt;&lt;br&gt;&lt;/div&gt;&lt;div&gt;&lt;br&gt;&lt;/div&gt;" style="rounded=0;whiteSpace=wrap;html=1;fillColor=#000000;fontColor=#FAFAFA;" parent="WIyWlLk6GJQsqaUBKTNV-1" vertex="1">
          <mxGeometry x="90" y="40" width="190" height="300" as="geometry" />
        </mxCell>
        <mxCell id="sObqyzGJp8MzGJ6KXpRl-10" style="edgeStyle=orthogonalEdgeStyle;rounded=0;orthogonalLoop=1;jettySize=auto;html=1;exitX=1;exitY=1;exitDx=0;exitDy=0;entryX=0;entryY=1;entryDx=0;entryDy=0;" parent="WIyWlLk6GJQsqaUBKTNV-1" edge="1" target="WDq3_x80WdMwLBLcd_J3-3" source="sObqyzGJp8MzGJ6KXpRl-1">
          <mxGeometry relative="1" as="geometry">
            <mxPoint x="480" y="690" as="targetPoint" />
            <mxPoint x="280" y="690" as="sourcePoint" />
          </mxGeometry>
        </mxCell>
        <mxCell id="sObqyzGJp8MzGJ6KXpRl-11" value="&lt;font style=&quot;font-size: 17px;&quot;&gt;FAB eliminar&lt;/font&gt;" style="edgeLabel;html=1;align=center;verticalAlign=middle;resizable=0;points=[];" parent="sObqyzGJp8MzGJ6KXpRl-10" vertex="1" connectable="0">
          <mxGeometry x="0.1313" y="1" relative="1" as="geometry">
            <mxPoint x="-7" y="-1" as="offset" />
          </mxGeometry>
        </mxCell>
        <mxCell id="sObqyzGJp8MzGJ6KXpRl-12" value="&lt;span style=&quot;font-size: 17px;&quot;&gt;Menú &amp;gt; Opción &quot;&lt;/span&gt;&lt;span style=&quot;font-size: 17px;&quot;&gt;Acerca de&quot;&lt;/span&gt;" style="edgeLabel;html=1;align=center;verticalAlign=middle;resizable=0;points=[];" parent="WIyWlLk6GJQsqaUBKTNV-1" vertex="1" connectable="0">
          <mxGeometry x="190.00487506940595" y="400.00415880066623" as="geometry" />
        </mxCell>
        <mxCell id="WDq3_x80WdMwLBLcd_J3-0" value="&lt;font style=&quot;font-size: 16px;&quot;&gt;Seleccionar-&lt;/font&gt;&lt;div&gt;&lt;font style=&quot;font-size: 16px;&quot;&gt;Ubicacion-&lt;/font&gt;&lt;/div&gt;&lt;div&gt;&lt;font style=&quot;font-size: 16px;&quot;&gt;Fragment&lt;/font&gt;&lt;/div&gt;" style="rounded=0;whiteSpace=wrap;html=1;" vertex="1" parent="WIyWlLk6GJQsqaUBKTNV-1">
          <mxGeometry x="640" y="40" width="170" height="300" as="geometry" />
        </mxCell>
        <mxCell id="WDq3_x80WdMwLBLcd_J3-1" style="edgeStyle=orthogonalEdgeStyle;rounded=0;orthogonalLoop=1;jettySize=auto;html=1;exitX=1;exitY=0.5;exitDx=0;exitDy=0;entryX=0;entryY=0.5;entryDx=0;entryDy=0;" edge="1" parent="WIyWlLk6GJQsqaUBKTNV-1" source="sObqyzGJp8MzGJ6KXpRl-4" target="WDq3_x80WdMwLBLcd_J3-0">
          <mxGeometry relative="1" as="geometry">
            <mxPoint x="720" y="240" as="targetPoint" />
            <mxPoint x="520" y="240" as="sourcePoint" />
          </mxGeometry>
        </mxCell>
        <mxCell id="WDq3_x80WdMwLBLcd_J3-2" value="&lt;div&gt;&lt;span style=&quot;font-size: 17px;&quot;&gt;TextView&lt;/span&gt;&lt;/div&gt;&lt;div&gt;&lt;font style=&quot;font-size: 17px;&quot;&gt;Sel. Ubicación&lt;/font&gt;&lt;/div&gt;" style="edgeLabel;html=1;align=center;verticalAlign=middle;resizable=0;points=[];" vertex="1" connectable="0" parent="WDq3_x80WdMwLBLcd_J3-1">
          <mxGeometry x="0.1313" y="1" relative="1" as="geometry">
            <mxPoint x="-12" y="1" as="offset" />
          </mxGeometry>
        </mxCell>
        <mxCell id="WDq3_x80WdMwLBLcd_J3-3" value="&lt;span style=&quot;font-size: 16px;&quot;&gt;AlertDialog&lt;br&gt;(eliminar contactos)&lt;/span&gt;" style="rounded=0;whiteSpace=wrap;html=1;fillColor=#dae8fc;strokeColor=#6c8ebf;" vertex="1" parent="WIyWlLk6GJQsqaUBKTNV-1">
          <mxGeometry x="640" y="450" width="170" height="300" as="geometry" />
        </mxCell>
        <mxCell id="WDq3_x80WdMwLBLcd_J3-4" value="&lt;div&gt;&lt;font style=&quot;font-size: 16px;&quot;&gt;Contact-&lt;/font&gt;&lt;/div&gt;&lt;div&gt;&lt;font style=&quot;font-size: 16px;&quot;&gt;Detail-&lt;/font&gt;&lt;/div&gt;&lt;div&gt;&lt;font style=&quot;font-size: 16px;&quot;&gt;Fragment&lt;/font&gt;&lt;/div&gt;" style="rounded=0;whiteSpace=wrap;html=1;" vertex="1" parent="WIyWlLk6GJQsqaUBKTNV-1">
          <mxGeometry x="450" y="440" width="170" height="300" as="geometry" />
        </mxCell>
        <mxCell id="WDq3_x80WdMwLBLcd_J3-5" style="edgeStyle=orthogonalEdgeStyle;rounded=0;orthogonalLoop=1;jettySize=auto;html=1;exitX=1;exitY=0.5;exitDx=0;exitDy=0;entryX=0.006;entryY=0.637;entryDx=0;entryDy=0;entryPerimeter=0;" edge="1" parent="WIyWlLk6GJQsqaUBKTNV-1" source="sObqyzGJp8MzGJ6KXpRl-1" target="WDq3_x80WdMwLBLcd_J3-4">
          <mxGeometry relative="1" as="geometry">
            <mxPoint x="450" y="629.5" as="targetPoint" />
            <mxPoint x="290" y="629.5" as="sourcePoint" />
          </mxGeometry>
        </mxCell>
        <mxCell id="WDq3_x80WdMwLBLcd_J3-6" value="&lt;span style=&quot;font-size: 17px;&quot;&gt;item&lt;br&gt;(contacto&lt;br&gt;de la lista)&lt;/span&gt;" style="edgeLabel;html=1;align=center;verticalAlign=middle;resizable=0;points=[];" vertex="1" connectable="0" parent="WDq3_x80WdMwLBLcd_J3-5">
          <mxGeometry x="0.1313" y="1" relative="1" as="geometry">
            <mxPoint x="-12" y="1" as="offset" />
          </mxGeometry>
        </mxCell>
        <mxCell id="WDq3_x80WdMwLBLcd_J3-7" value="&lt;span style=&quot;font-size: 16px;&quot;&gt;Mapa (Fragment)&lt;/span&gt;" style="rounded=0;whiteSpace=wrap;html=1;fillColor=#d5e8d4;strokeColor=#82b366;" vertex="1" parent="WIyWlLk6GJQsqaUBKTNV-1">
          <mxGeometry x="460" y="630" width="150" height="100" as="geometry" />
        </mxCell>
      </root>
    </mxGraphModel>
  </diagram>
</mxfile>
